<?xml version="1.0" standalone="no"?><!DOCTYPE svg PUBLIC "-//W3C//DTD SVG 1.1//EN" "http://www.w3.org/Graphics/SVG/1.1/DTD/svg11.dtd"><svg t="1628698535365" class="icon" viewBox="0 0 1024 1024" version="1.1" xmlns="http://www.w3.org/2000/svg" p-id="2376" xmlns:xlink="http://www.w3.org/1999/xlink" width="200" height="200"><defs><style type="text/css"></style></defs><path d="M383.296 438.656V314.112a128.704 128.704 0 0 1 257.344 0v124.544H383.296zM512 96a218.432 218.432 0 0 0-218.304 218.112v124.544H243.2a51.2 51.2 0 0 0-51.2 51.2v387.072c0 28.224 22.912 51.072 51.2 51.072h537.6c28.288 0 51.2-22.848 51.2-51.072V489.92a51.2 51.2 0 0 0-51.2-51.2h-50.496V314.048C730.304 193.792 632.384 96 512 96z m230.4 432.192v310.4H281.6v-310.4H742.4z" p-id="2377" fill="#6495ed"></path><path d="M512 564.48c-39.424 0-71.36 31.936-71.36 71.296 0 22.208 10.688 41.216 26.56 54.272v54.4a44.8 44.8 0 0 0 89.6 0v-54.4c15.872-13.056 26.56-32.064 26.56-54.272 0-39.36-32-71.296-71.36-71.296" p-id="2378" fill="#6495ed"></path></svg>